<svg width="707" height="350" viewBox="0 0 707 350" fill="none" xmlns="http://www.w3.org/2000/svg">
<path d="M350.724 175C350.724 271.65 272.436 350 175.862 350C79.2885 350 1 271.65 1 175C1 78.3502 79.2885 0 175.862 0C272.436 0 350.724 78.3502 350.724 175Z" fill="#A50000"/>
<path d="M350.724 175C350.724 271.65 272.436 350 175.862 350C79.2885 350 1 271.65 1 175C1 78.3502 79.2885 0 175.862 0C272.436 0 350.724 78.3502 350.724 175Z" fill="url(#paint0_linear_2_2)"/>
<path d="M350.451 165.802C352.744 209.403 338.669 252.287 310.988 286.035C283.308 319.782 244.022 341.955 200.844 348.2C157.665 354.446 113.714 344.312 77.6182 319.79C41.5226 295.267 15.8904 258.126 5.754 215.66C-4.38237 173.193 1.70931 128.469 22.833 90.2667C43.9568 52.0647 78.5866 23.145 119.924 9.18551C161.261 -4.77397 206.319 -2.76484 246.251 14.8184C286.184 32.4017 318.107 64.289 335.752 104.22L312.654 114.443C297.558 80.2792 270.246 52.9975 236.08 37.9538C201.915 22.9101 163.365 21.1912 127.998 33.1345C92.6319 45.0778 63.0037 69.8205 44.9309 102.505C26.8581 135.189 21.6463 173.454 30.3186 209.787C38.991 246.12 60.9211 277.896 91.8033 298.877C122.685 319.858 160.289 328.528 197.231 323.185C234.173 317.841 267.785 298.871 291.467 269.998C315.15 241.124 327.192 204.434 325.231 167.131L350.451 165.802Z" fill="#008B8B"/>
<path d="M347.99 182.723C315.616 182.723 290.621 183 257.704 183C227.683 183 216.436 183 184.011 183C178.489 183 174 178.523 174 173V173C174 167.477 178.482 163 184.005 163C213.164 163 233.15 163 257.704 163C285.929 163 319.922 163 351 163C351 163 350.437 169.482 349.871 173.381C349.306 177.28 347.99 182.723 347.99 182.723Z" fill="#008B8B"/>
<circle cx="175.5" cy="173.5" r="14.5" fill="#008B8B"/>
<path d="M401.844 318C390.394 318 381.919 315.275 376.419 309.825C370.969 304.325 368.244 295.85 368.244 284.4V249.9C368.244 238.35 370.969 229.85 376.419 224.4C381.869 218.9 390.294 216.2 401.694 216.3H419.844C429.244 216.3 436.419 218.25 441.369 222.15C446.319 226 449.194 232.1 449.994 240.45C450.294 242.55 449.894 244.15 448.794 245.25C447.694 246.35 446.094 246.9 443.994 246.9C440.194 246.9 437.994 244.8 437.394 240.6C436.894 236 435.294 232.9 432.594 231.3C429.944 229.7 425.694 228.9 419.844 228.9H401.694C396.394 228.85 392.219 229.45 389.169 230.7C386.169 231.95 384.019 234.125 382.719 237.225C381.469 240.275 380.844 244.5 380.844 249.9V284.4C380.844 289.75 381.469 293.95 382.719 297C384.019 300.05 386.194 302.225 389.244 303.525C392.294 304.775 396.494 305.4 401.844 305.4H419.844C425.694 305.4 429.944 304.6 432.594 303C435.294 301.35 436.894 298.25 437.394 293.7C437.994 289.5 440.194 287.4 443.994 287.4C446.094 287.4 447.694 287.95 448.794 289.05C449.894 290.15 450.294 291.75 449.994 293.85C449.194 302.25 446.319 308.375 441.369 312.225C436.419 316.075 429.244 318 419.844 318H401.844ZM482.588 318C478.388 318 476.288 315.9 476.288 311.7V222.6C476.288 218.4 478.388 216.3 482.588 216.3C485.338 216.3 487.638 217.65 489.488 220.35L524.888 273.6L522.188 274.05L557.888 220.35C559.588 217.65 562.138 216.3 565.538 216.3C568.938 216.3 570.638 218.4 570.638 222.6V311.7C570.638 315.9 568.538 318 564.338 318C560.138 318 558.038 315.9 558.038 311.7V235.2L561.938 236.55L530.438 282.9C528.588 285.6 526.038 286.95 522.788 286.95C520.538 286.95 518.488 285.6 516.638 282.9L485.138 236.55L488.888 237.6V311.7C488.888 315.9 486.788 318 482.588 318Z" fill="#EBA417"/>
<defs>
<linearGradient id="paint0_linear_2_2" x1="176" y1="279" x2="176" y2="20" gradientUnits="userSpaceOnUse">
<stop stop-color="#1E1E1E"/>
<stop offset="1" stop-color="#1E1E1E" stop-opacity="0"/>
</linearGradient>
</defs>
</svg>
